<?xml version="1.0" standalone="no"?>
<!DOCTYPE svg PUBLIC "-//W3C//DTD SVG 20010904//EN" "http://www.w3.org/TR/2001/REC-SVG-20010904/DTD/svg10.dtd">
<svg version="1.0" xmlns="http://www.w3.org/2000/svg"
    width="724.000000pt" height="501.000000pt" viewBox="0 0 724.000000 501.000000"
    preserveAspectRatio="xMidYMid meet">

    <g transform="translate(0.000000,501.000000) scale(0.100000,-0.100000)"
        fill="#f97316" stroke="none">
        <path
            d="M2245 4863 c-142 -17 -598 -126 -970 -232 -154 -43 -327 -91 -385
-107 -121 -31 -170 -51 -228 -94 -61 -44 -82 -83 -82 -152 0 -52 3 -61 34 -91
40 -40 116 -63 174 -52 20 3 102 37 182 75 152 71 383 152 560 195 58 14 213
53 345 86 132 33 261 63 288 66 l47 6 0 -37 c0 -42 -23 -90 -143 -298 -98
-171 -317 -609 -408 -820 -63 -145 -65 -147 -96 -148 -105 -1 -465 -83 -536
-122 -85 -47 -114 -146 -64 -219 22 -33 25 -34 82 -33 45 1 99 15 210 54 138
49 159 53 261 58 173 7 270 -34 315 -132 24 -54 24 -113 -2 -273 l-22 -131
-46 -18 c-25 -9 -111 -46 -191 -82 -412 -185 -718 -397 -1010 -698 -118 -122
-177 -196 -249 -311 -182 -294 -269 -614 -231 -848 45 -279 366 -465 630 -366
93 35 256 138 332 209 180 170 368 477 568 927 34 77 71 149 81 161 11 11 19
29 19 40 0 23 134 384 218 585 33 79 70 172 82 206 l22 62 88 20 c48 12 91 21
94 21 4 0 -1 -12 -12 -27 -58 -83 -109 -297 -97 -404 10 -84 54 -171 106 -209
136 -98 294 -67 450 89 111 112 178 245 197 396 l7 59 69 24 c77 26 153 72
214 127 l40 36 7 -53 c13 -109 29 -166 71 -261 62 -138 57 -196 -27 -272 -70
-63 -130 -40 -168 65 -17 45 -31 66 -54 81 -60 36 -119 21 -143 -36 -30 -72
-12 -136 61 -214 89 -96 214 -120 331 -65 71 34 182 141 215 209 20 41 24 65
24 135 0 80 -3 90 -42 170 -49 100 -63 147 -63 216 0 59 35 123 92 166 21 16
42 43 48 63 10 30 9 40 -7 67 -28 48 -66 71 -126 76 l-53 4 -67 -80 c-118
-141 -249 -245 -364 -291 l-50 -19 -11 74 c-19 121 -55 174 -145 214 -52 23
-60 22 -145 -16 -29 -13 -56 -24 -61 -24 -4 0 -33 -18 -65 -40 -41 -29 -67
-40 -94 -40 -20 0 -77 -9 -126 -20 -49 -11 -91 -19 -92 -17 -2 2 2 21 8 43 19
68 14 211 -11 284 -48 137 -119 241 -210 302 -25 17 -48 32 -49 34 -11 8 261
582 358 755 29 52 96 162 150 244 54 83 133 217 175 299 69 134 77 154 72 193
-5 49 -44 106 -86 128 -54 27 -194 41 -296 28z m455 -2338 c7 -8 15 -35 18
-60 4 -38 2 -45 -13 -45 -21 0 -75 56 -75 79 0 37 46 55 70 26z m-82 -216 c25
-16 54 -29 64 -29 24 0 23 -22 -3 -106 -40 -128 -98 -221 -167 -265 -72 -46
-146 -32 -172 31 -33 80 32 318 127 462 l25 37 40 -50 c22 -28 60 -64 86 -80z
m-880 -116 c-14 -52 -63 -174 -223 -553 -267 -635 -413 -890 -634 -1111 -185
-184 -322 -216 -468 -110 -81 59 -108 164 -83 319 17 109 44 191 104 317 168
353 475 677 914 963 76 49 377 211 394 212 3 0 2 -17 -4 -37z" />
        <path
            d="M4332 4229 c-49 -25 -112 -93 -162 -176 -19 -32 -49 -77 -67 -101
-18 -24 -33 -53 -33 -65 0 -12 -16 -66 -35 -119 -58 -164 -121 -392 -251 -918
-70 -278 -148 -584 -175 -680 -55 -192 -70 -308 -49 -360 24 -57 121 -84 160
-44 10 10 35 60 55 109 55 133 116 250 176 335 99 142 288 305 319 274 7 -7 3
-39 -15 -105 -14 -52 -39 -145 -55 -207 -69 -261 -22 -398 141 -410 83 -6 149
28 244 125 l74 75 7 -39 c10 -58 40 -109 81 -140 33 -25 44 -28 117 -28 112 0
172 31 289 147 l87 88 0 -47 c0 -102 74 -189 160 -187 83 1 156 42 255 143 33
33 62 61 65 61 3 0 11 -19 17 -42 17 -63 66 -130 114 -157 103 -58 219 -15
370 140 l97 98 6 -42 c9 -56 41 -126 74 -161 44 -46 97 -66 182 -66 132 0 247
66 402 228 173 182 244 335 164 350 -39 8 -66 -10 -115 -76 -66 -89 -195 -212
-263 -251 -97 -55 -182 -51 -215 12 -22 44 -28 137 -12 209 7 38 42 122 86
208 82 162 89 199 49 243 -43 47 -144 56 -159 15 -3 -9 -15 -3 -38 19 -126
119 -286 89 -475 -89 -99 -95 -155 -169 -214 -288 -68 -135 -264 -380 -304
-380 -9 0 -23 11 -32 25 -14 21 -16 42 -11 113 4 71 16 118 61 250 31 89 65
180 76 202 22 43 26 91 10 121 -14 25 -62 49 -98 49 -47 0 -76 -32 -122 -137
-118 -272 -222 -442 -312 -516 -136 -110 -197 -103 -185 22 5 58 88 313 151
464 20 48 36 99 36 113 0 33 -38 70 -88 85 -74 22 -103 -12 -181 -211 -27 -69
-57 -154 -67 -190 -11 -41 -36 -92 -67 -138 -61 -89 -169 -208 -208 -228 -26
-13 -30 -13 -49 6 -27 27 -22 64 31 248 54 186 72 282 67 360 -4 83 -32 141
-79 164 -37 20 -113 24 -153 8 -33 -12 -249 -204 -325 -288 l-61 -67 16 55
c26 88 39 115 100 197 212 287 463 751 560 1037 92 269 58 482 -88 557 -48 25
-83 24 -136 -2z m92 -255 c19 -51 -18 -227 -84 -394 -51 -129 -312 -659 -317
-644 -5 14 55 245 114 444 58 194 124 381 173 486 49 105 97 152 114 108z
m1943 -1424 c59 -36 56 -76 -14 -215 -111 -223 -293 -422 -363 -400 -54 17
-69 142 -30 247 53 141 192 322 284 368 51 25 82 25 123 0z" />
        <path
            d="M4215 1409 c-725 -31 -1276 -90 -1737 -185 -238 -49 -324 -77 -370
-124 -32 -32 -38 -44 -38 -80 0 -54 42 -100 92 -100 18 0 137 22 263 49 601
129 892 172 1455 216 613 48 1784 47 2265 -1 276 -28 311 -29 340 -10 22 14
26 24 23 54 -4 43 -32 63 -123 87 -127 33 -535 77 -880 95 -217 11 -1022 11
-1290 -1z" />
    </g>
</svg>